<svg width="120" height="24" viewBox="0 0 120 24" fill="none" xmlns="http://www.w3.org/2000/svg">
<path d="M1.90735e-06 22.7839V0.383934H4.288L13.824 16.1919H11.552L20.928 0.383934H25.184L25.248 22.7839H20.384L20.352 7.83994H21.248L13.76 20.4159H11.424L3.776 7.83994H4.864V22.7839H1.90735e-06ZM30.5625 22.7839V0.383934H41.5065C44.3225 0.383934 46.4345 0.917267 47.8425 1.98393C49.2718 3.0506 49.9865 4.4586 49.9865 6.20794C49.9865 7.38127 49.6985 8.40527 49.1225 9.27993C48.5465 10.1333 47.7572 10.7946 46.7545 11.2639C45.7518 11.7333 44.5998 11.9679 43.2985 11.9679L43.9065 10.6559C45.3145 10.6559 46.5625 10.8906 47.6505 11.3599C48.7385 11.8079 49.5812 12.4799 50.1785 13.3759C50.7972 14.2719 51.1065 15.3706 51.1065 16.6719C51.1065 18.5919 50.3492 20.0959 48.8345 21.1839C47.3198 22.2506 45.0905 22.7839 42.1465 22.7839H30.5625ZM35.7145 18.8799H41.7625C43.1065 18.8799 44.1198 18.6666 44.8025 18.2399C45.5065 17.7919 45.8585 17.0879 45.8585 16.1279C45.8585 15.1893 45.5065 14.4959 44.8025 14.0479C44.1198 13.5786 43.1065 13.3439 41.7625 13.3439H35.3305V9.56793H40.8665C42.1252 9.56793 43.0852 9.3546 43.7465 8.92793C44.4292 8.47993 44.7705 7.80793 44.7705 6.91193C44.7705 6.03727 44.4292 5.3866 43.7465 4.95993C43.0852 4.51193 42.1252 4.28794 40.8665 4.28794H35.7145V18.8799ZM65.7513 23.1679C64.0233 23.1679 62.4126 22.8906 60.9193 22.3359C59.4473 21.7599 58.1673 20.9493 57.0793 19.9039C55.9913 18.8586 55.1379 17.6319 54.5193 16.2239C53.9219 14.8159 53.6233 13.2693 53.6233 11.5839C53.6233 9.8986 53.9219 8.35193 54.5193 6.94393C55.1379 5.53593 55.9913 4.30927 57.0793 3.26394C58.1886 2.2186 59.4793 1.4186 60.9513 0.863934C62.4233 0.287935 64.0339 -6.48499e-05 65.7833 -6.48499e-05C67.7246 -6.48499e-05 69.4739 0.341269 71.0313 1.02394C72.6099 1.68527 73.9326 2.6666 74.9993 3.96794L71.6713 7.03994C70.9033 6.16527 70.0499 5.5146 69.1113 5.08793C68.1726 4.63994 67.1486 4.41594 66.0393 4.41594C64.9939 4.41594 64.0339 4.5866 63.1593 4.92793C62.2846 5.26927 61.5273 5.75993 60.8873 6.39993C60.2473 7.03993 59.7459 7.79727 59.3833 8.67194C59.0419 9.5466 58.8713 10.5173 58.8713 11.5839C58.8713 12.6506 59.0419 13.6213 59.3833 14.4959C59.7459 15.3706 60.2473 16.1279 60.8873 16.7679C61.5273 17.4079 62.2846 17.8986 63.1593 18.2399C64.0339 18.5813 64.9939 18.7519 66.0393 18.7519C67.1486 18.7519 68.1726 18.5386 69.1113 18.1119C70.0499 17.6639 70.9033 16.9919 71.6713 16.0959L74.9993 19.1679C73.9326 20.4693 72.6099 21.4613 71.0313 22.1439C69.4739 22.8266 67.7139 23.1679 65.7513 23.1679ZM78.1875 22.7839V0.383934H95.1155V4.54393H83.3395V18.6239H95.5315V22.7839H78.1875ZM82.9555 13.4399V9.40794H93.7395V13.4399H82.9555ZM96.9088 22.7839L106.541 9.50393V13.2799L97.3248 0.383934H103.213L109.581 9.37593L107.117 9.40794L113.389 0.383934H119.021L109.869 13.0559V9.34394L119.565 22.7839H113.581L106.989 13.2799H109.357L102.861 22.7839H96.9088Z" fill="black" fill-opacity="0.8"/>
</svg>
