<svg width="120" height="24" viewBox="0 0 120 24" fill="none" xmlns="http://www.w3.org/2000/svg">
<path d="M1.90735e-06 22.784V0.383999H4.288L13.824 16.192H11.552L20.928 0.383999H25.184L25.248 22.784H20.384L20.352 7.84H21.248L13.76 20.416H11.424L3.776 7.84H4.864V22.784H1.90735e-06ZM30.5625 22.784V0.383999H41.5065C44.3225 0.383999 46.4345 0.917332 47.8425 1.984C49.2718 3.05067 49.9865 4.45867 49.9865 6.208C49.9865 7.38133 49.6985 8.40533 49.1225 9.28C48.5465 10.1333 47.7572 10.7947 46.7545 11.264C45.7518 11.7333 44.5998 11.968 43.2985 11.968L43.9065 10.656C45.3145 10.656 46.5625 10.8907 47.6505 11.36C48.7385 11.808 49.5812 12.48 50.1785 13.376C50.7972 14.272 51.1065 15.3707 51.1065 16.672C51.1065 18.592 50.3492 20.096 48.8345 21.184C47.3198 22.2507 45.0905 22.784 42.1465 22.784H30.5625ZM35.7145 18.88H41.7625C43.1065 18.88 44.1198 18.6667 44.8025 18.24C45.5065 17.792 45.8585 17.088 45.8585 16.128C45.8585 15.1893 45.5065 14.496 44.8025 14.048C44.1198 13.5787 43.1065 13.344 41.7625 13.344H35.3305V9.568H40.8665C42.1252 9.568 43.0852 9.35467 43.7465 8.928C44.4292 8.48 44.7705 7.808 44.7705 6.912C44.7705 6.03733 44.4292 5.38667 43.7465 4.96C43.0852 4.512 42.1252 4.288 40.8665 4.288H35.7145V18.88ZM65.7513 23.168C64.0233 23.168 62.4126 22.8907 60.9193 22.336C59.4473 21.76 58.1673 20.9493 57.0793 19.904C55.9913 18.8587 55.1379 17.632 54.5193 16.224C53.9219 14.816 53.6233 13.2693 53.6233 11.584C53.6233 9.89867 53.9219 8.352 54.5193 6.944C55.1379 5.536 55.9913 4.30933 57.0793 3.264C58.1886 2.21867 59.4793 1.41867 60.9513 0.863998C62.4233 0.287999 64.0339 0 65.7833 0C67.7246 0 69.4739 0.341333 71.0313 1.024C72.6099 1.68533 73.9326 2.66667 74.9993 3.968L71.6713 7.04C70.9033 6.16533 70.0499 5.51467 69.1113 5.088C68.1726 4.64 67.1486 4.416 66.0393 4.416C64.9939 4.416 64.0339 4.58667 63.1593 4.928C62.2846 5.26933 61.5273 5.76 60.8873 6.4C60.2473 7.04 59.7459 7.79733 59.3833 8.672C59.0419 9.54667 58.8713 10.5173 58.8713 11.584C58.8713 12.6507 59.0419 13.6213 59.3833 14.496C59.7459 15.3707 60.2473 16.128 60.8873 16.768C61.5273 17.408 62.2846 17.8987 63.1593 18.24C64.0339 18.5813 64.9939 18.752 66.0393 18.752C67.1486 18.752 68.1726 18.5387 69.1113 18.112C70.0499 17.664 70.9033 16.992 71.6713 16.096L74.9993 19.168C73.9326 20.4693 72.6099 21.4613 71.0313 22.144C69.4739 22.8267 67.7139 23.168 65.7513 23.168ZM78.1875 22.784V0.383999H95.1155V4.544H83.3395V18.624H95.5315V22.784H78.1875ZM82.9555 13.44V9.408H93.7395V13.44H82.9555ZM96.9088 22.784L106.541 9.504V13.28L97.3248 0.383999H103.213L109.581 9.376L107.117 9.408L113.389 0.383999H119.021L109.869 13.056V9.344L119.565 22.784H113.581L106.989 13.28H109.357L102.861 22.784H96.9088Z" fill="#FFCC00"/>
</svg>
